<svg width="52" height="43" viewBox="0 0 52 43" fill="none" xmlns="http://www.w3.org/2000/svg">
<path d="M24.6778 42.1521L4.20702 22.9062C3.33592 22.1387 2.65149 21.2531 2.02928 20.3086C-1.33066 15.0543 -0.459568 8.32415 4.20702 3.95545C6.88253 1.41688 10.4914 0 14.2868 0C20.2601 0 23.9933 3.30604 25.5489 5.19521C27.1044 3.30604 30.8377 0 36.8109 0C40.6064 0 44.2152 1.41688 46.8907 3.95545C51.4951 8.32415 52.4284 15.0543 49.0685 20.3086C48.4463 21.2531 47.7618 22.1387 46.8907 22.9062L26.42 42.1521C25.9222 42.6244 25.1755 42.6244 24.6778 42.1521ZM14.2868 2.36146C11.1136 2.36146 8.18917 3.54219 5.94921 5.60847C2.15372 9.20969 1.40707 14.7591 4.1448 19.0688C4.64257 19.8363 5.26478 20.6037 5.94921 21.2531L25.5489 39.6725L45.1485 21.2531C45.833 20.6037 46.4552 19.8953 46.9529 19.0688C49.6907 14.7001 49.0062 9.15066 45.1485 5.60847C42.9086 3.54219 39.922 2.36146 36.8109 2.36146C32.331 2.36146 28.5977 4.66388 26.6066 7.85185C26.1089 8.61933 24.9267 8.61933 24.4289 7.85185C22.5 4.66388 18.7668 2.36146 14.2868 2.36146Z" fill="#BCF8F7"/>
</svg>
